<svg xmlns="http://www.w3.org/2000/svg" width="32.9" height="42.7" viewBox="0 0 32.9 42.7"><path fill="#999" d="M32.9 38.6v-.2-.1-.1c-.1-.3-.3-.6-.6-.7l-3.8-3c-.4-.3-1.1-.3-1.4.2-.3.4-.3 1.1.2 1.4l1.8 1.4H12.9l1.8-1.4c.4-.3.5-1 .2-1.4-.3-.4-1-.5-1.4-.2l-3.8 3c-.4.1-.7.3-.7.7v.4c0 .1 0 .1.1.2 0 .1.1.1.1.2v.1s.1 0 .1.1c0 0 0 .1.1.1l4.1 3.3c.2.1.4.2.6.2.3 0 .6-.1.8-.4.3-.4.3-1.1-.2-1.4l-1.9-1.5h16.5L27.4 41c-.4.3-.5 1-.2 1.4.2.2.5.4.8.4.2 0 .4-.1.6-.2l4.1-3.3.1-.1s.1 0 .1-.1V39c0-.1.1-.1.1-.2-.1 0-.1-.1-.1-.2zM28.7 6.6l-5.5-5.5C22-.1 20-.1 18.8 1.1c-.3.3-.5.6-.7 1-1.2-.8-2.9-.7-3.9.4-.2.2-.4.5-.6.9-1.2-1.1-3.2-1.1-4.3.1-.2.2-.4.5-.6.8L5.3.9C4.1-.3 2.1-.3.9.9.3 1.5 0 2.2 0 3.1c0 .8.3 1.6.9 2.2L9.6 14c-.3.1-.7.3-.9.6-.6.6-.9 1.4-.9 2.2s.3 1.6.9 2.2l3.6 3.6.1.1s0 .1.1.1c2.2 2.2 5.2 3.3 8.1 3.3 2.9 0 5.9-1.1 8.1-3.3 2.2-2.2 3.3-5 3.3-8.1s-1.2-6-3.3-8.1zm-1.5 14.7c-3.7 3.7-9.7 3.7-13.3 0l-.1-.1s0-.1-.1-.1l-3.6-3.6c-.4-.4-.4-1.1 0-1.5.4-.4 1.1-.4 1.5 0l3.6 3.6c.2.2.5.3.7.3s.5-.1.7-.3c.4-.4.4-1 0-1.4L13 14.6 2.3 3.8c-.4-.4-.4-1.1 0-1.5.4-.4 1.1-.4 1.5 0l9.7 9.7c.2.2.5.3.7.3s.5-.1.7-.3c.4-.4.4-1 0-1.4l-4.2-4.2c-.4-.4-.4-1.1 0-1.5.4-.4 1.1-.4 1.5 0l5.9 5.9c.2.2.5.3.7.3s.5-.1.7-.3c.4-.4.4-1 0-1.4l-3.9-3.9c-.4-.4-.4-1.1 0-1.5.4-.4 1.1-.4 1.5 0l5.3 5c.2.2.5.3.7.3s.5-.1.7-.3c.4-.4.4-1 0-1.4L20.2 4c-.4-.4-.4-1.1 0-1.5.4-.4 1.1-.4 1.5 0L27.2 8C29 9.8 30 12.1 30 14.6c0 2.6-1 4.9-2.8 6.7z"/></svg>